<svg width="152" height="32" viewBox="0 0 152 32" fill="none" xmlns="http://www.w3.org/2000/svg">
<g clip-path="url(#clip0_1039_2229)">
<path fill-rule="evenodd" clip-rule="evenodd" d="M19.6678 31.243C19.5782 28.5908 13.8913 22.2227 11.5007 20.927C14.9374 21.1808 22.9347 24.3088 24.906 27.5911C24.3175 15.2753 1.33387 13.9197 1.91437 8.74398C0.795361 10.9148 0.162598 13.3818 0.162598 15.9976C0.162598 24.6907 7.14891 31.7402 15.7638 31.7402C17.1118 31.7402 18.4201 31.5677 19.6678 31.243Z" fill="#1C1B1D"/>
<path fill-rule="evenodd" clip-rule="evenodd" d="M6.3999 4.45955C6.98826 16.7754 30.1336 18.3751 29.4547 23.5508C30.6725 21.3084 31.365 18.7343 31.365 15.9973C31.365 7.30424 24.3787 0.254672 15.7639 0.254672C14.3339 0.254672 12.9488 0.448768 11.633 0.812722C11.7226 3.46501 17.4145 9.82793 19.8051 11.1236C16.3685 10.8699 8.37124 7.74186 6.3999 4.45955Z" fill="#1C1B1D" fill-opacity="0.3"/>
<path d="M79.2564 26.6416V16.3841C79.2564 12.281 77.2228 10.1029 73.1571 10.1029H63.7313V14.3325H73.1571C74.5127 14.3325 75.1903 15.0044 75.1903 16.3469V16.3841H68.093C64.6925 16.3841 62.9917 18.0625 62.9917 21.4196C62.9917 24.9009 64.6921 26.6416 68.093 26.6416H79.2564ZM59.6863 9.34976H49.3266C48.6851 9.34976 47.1895 9.40824 46.8093 10.0139C46.5811 10.3775 46.5629 11.7896 46.5629 12.2558C46.5629 12.7594 46.7645 13.1157 47.1848 13.3819C47.7166 13.7188 48.7073 13.7659 49.3266 13.7659H53.3803C54.9317 13.7659 56.5388 14.0481 57.8357 14.959C59.0535 15.8144 59.6469 17.0396 59.6469 18.5313V21.7313C59.6469 23.2702 59.0593 24.546 57.7949 25.4288C56.4455 26.3713 54.7334 26.6416 53.1248 26.6416H41.6388V22.4879H51.9985C52.6498 22.4879 54.1727 22.4252 54.5311 21.7768C54.721 21.4333 54.7293 19.7975 54.7293 19.3399C54.7293 17.9753 53.1117 17.8713 52.1096 17.8713H48.0625C46.533 17.8713 44.9616 17.6057 43.6443 16.7772C42.3525 15.9646 41.606 14.7828 41.606 13.2235V10.0649C41.606 8.37218 42.4097 7.09001 43.7912 6.17907C44.9868 5.39073 46.5848 5.1959 47.9841 5.1959H59.6863V9.34976ZM87.3561 10.2825H93.6403C97.2248 10.2825 99.6062 11.8692 99.6062 15.7183V26.5588H95.1271V16.8518C95.1271 16.3455 95.0746 15.5305 94.7039 15.1518C94.3321 14.7726 93.4941 14.7128 92.9922 14.7128H87.6117C87.4072 14.7128 87.3561 14.7108 87.3561 14.9304V26.6002H82.8381V5.1959H87.3561V10.2825ZM132.749 14.3179C131.725 14.3179 130.7 14.3199 129.677 14.355C129.299 14.3679 128.709 14.361 128.355 14.4624C127.633 14.6699 127.431 15.2258 127.431 15.9317V26.6416H122.802V14.8061C122.802 11.1366 125.701 10.1029 128.839 10.1029H133.318V14.3179H132.749ZM67.0578 21.494C67.0578 20.8228 67.4029 20.487 68.093 20.487H75.1903V22.5387H68.093C67.4033 22.5387 67.0578 22.1904 67.0578 21.494ZM119.054 26.6416V16.3841C119.054 12.281 117.021 10.1029 112.954 10.1029H103.529V14.3325H112.954C114.31 14.3325 114.988 15.0041 114.988 16.3469V16.3841H107.89C104.489 16.3841 102.789 18.0625 102.789 21.4196C102.789 24.9009 104.489 26.6416 107.89 26.6416H119.054ZM106.856 21.494C106.856 20.8228 107.2 20.487 107.89 20.487H114.988V22.5387H107.89C107.2 22.5387 106.856 22.1904 106.856 21.494ZM151.693 26.6416V16.3841C151.693 12.281 149.659 10.1029 145.593 10.1029H136.167V14.3325H145.593C146.949 14.3325 147.627 15.0045 147.627 16.3469V16.3841H140.529C137.129 16.3841 135.428 18.0625 135.428 21.4196C135.428 24.9009 137.128 26.6416 140.529 26.6416H151.693ZM139.494 21.494C139.494 20.8228 139.839 20.487 140.529 20.487H147.627V22.5387H140.529C139.84 22.5387 139.494 22.1904 139.494 21.494Z" fill="#1C1B1D"/>
</g>
<defs>
<clipPath id="clip0_1039_2229">
<rect width="152" height="32" fill="white"/>
</clipPath>
</defs>
</svg>
