<svg width="980" height="411" viewBox="0 0 980 411" fill="none" xmlns="http://www.w3.org/2000/svg">
<path d="M252.907 369.12H70.9958V363.308H110.828C107.569 357.968 104.61 352.447 101.964 346.772L150.899 351.906C150.961 351.906 151.021 351.882 151.068 351.84C151.114 351.799 151.144 351.741 151.153 351.679C151.161 351.616 151.146 351.553 151.112 351.501C151.078 351.448 151.026 351.41 150.966 351.393L100.326 342.539C97.7292 336.649 96.7135 332.019 95.5349 325.47L149.969 340.882C150.032 340.897 150.098 340.887 150.154 340.856C150.21 340.824 150.253 340.772 150.273 340.71C150.293 340.648 150.29 340.581 150.264 340.522C150.238 340.462 150.191 340.415 150.132 340.388L94.7205 320.568C94.0327 315.269 93.9171 309.91 94.3755 304.585L149.95 330.207C150.01 330.225 150.074 330.221 150.132 330.196C150.189 330.171 150.236 330.126 150.264 330.07C150.293 330.014 150.301 329.949 150.287 329.888C150.273 329.826 150.239 329.771 150.19 329.732L95.0367 299.761C95.5778 295.76 96.5119 291.824 97.825 288.01L98.879 284.939C99.0323 284.532 99.1856 284.126 99.3389 283.738L151.205 318.612C151.26 318.637 151.321 318.643 151.38 318.627C151.438 318.612 151.489 318.576 151.524 318.527C151.559 318.478 151.576 318.418 151.572 318.357C151.568 318.297 151.544 318.239 151.502 318.195L101.131 279.611C102.003 277.761 102.942 276.037 104.005 274.187L105.596 271.581C106.99 269.306 108.506 267.11 110.138 265.003L154.492 306.048C154.543 306.099 154.612 306.128 154.684 306.128C154.755 306.128 154.824 306.099 154.875 306.048C154.926 305.996 154.955 305.926 154.955 305.854C154.955 305.781 154.926 305.711 154.875 305.66L112.84 261.71L113.568 260.857C115.723 258.335 118.047 255.966 120.524 253.766L122.613 251.906C124.903 249.969 126.35 249 126.35 249L159.312 293.977C173.205 263.318 196.968 249 196.968 249V345.348L207.805 360.14H232.172L237.547 365.575L252.907 369.12Z" fill="#FFFCE3"/>
<path d="M943.625 183L974.406 214.063H912.844L943.625 183Z" fill="#FFFCE3"/>
<path d="M715.866 0.000244141L746.647 31.0631L685.086 31.0631L715.866 0.000244141Z" fill="#FFFCE3"/>
<path d="M35.5487 81.0002L66.3294 112.063H4.76813L35.5487 81.0002Z" fill="#FFFCE3"/>
<path d="M421.555 204L452.336 235.063H390.774L421.555 204Z" fill="#FFFCE3"/>
<path d="M675.934 369L706.715 400.063H645.154L675.934 369Z" fill="#FFFCE3"/>
</svg>
