<svg width="451" height="475" viewBox="0 0 451 475" fill="none" xmlns="http://www.w3.org/2000/svg">
<path d="M450.871 294.485H0V280.236H98.7237C90.6475 267.145 83.3134 253.61 76.756 239.696L198.041 252.283C198.195 252.282 198.344 252.225 198.46 252.122C198.575 252.02 198.65 251.879 198.67 251.726C198.69 251.573 198.655 251.418 198.57 251.289C198.485 251.16 198.356 251.066 198.207 251.025L72.695 229.318C66.2591 214.879 63.7417 203.527 60.8206 187.473L195.737 225.257C195.893 225.293 196.056 225.27 196.195 225.192C196.335 225.114 196.44 224.987 196.49 224.835C196.541 224.684 196.533 224.519 196.468 224.373C196.404 224.227 196.287 224.111 196.141 224.046L58.802 175.456C57.0975 162.464 56.8108 149.325 57.947 136.271L195.69 199.086C195.839 199.129 195.998 199.119 196.14 199.058C196.282 198.997 196.398 198.888 196.468 198.75C196.538 198.612 196.559 198.454 196.525 198.303C196.491 198.152 196.406 198.017 196.284 197.922L59.5857 124.444C60.9269 114.636 63.242 104.985 66.4966 95.6364L69.1089 88.108C69.4889 87.1105 69.8689 86.1131 70.2489 85.1631L198.801 170.659C198.936 170.721 199.089 170.735 199.233 170.697C199.377 170.659 199.503 170.572 199.59 170.452C199.677 170.331 199.719 170.184 199.71 170.035C199.7 169.887 199.639 169.746 199.537 169.638L74.6899 75.0462C76.851 70.5101 79.1784 66.2829 81.8145 61.7468L85.7568 55.3584C89.2113 49.7814 92.9692 44.3981 97.0137 39.233L206.947 139.857C207.073 139.983 207.244 140.053 207.422 140.053C207.6 140.053 207.771 139.983 207.897 139.857C208.023 139.731 208.094 139.56 208.094 139.382C208.094 139.203 208.023 139.033 207.897 138.907L103.711 31.1584L105.516 29.0685C110.857 22.8852 116.618 17.0768 122.757 11.6844L127.935 7.12464C133.611 2.37488 137.197 0 137.197 0L218.892 110.266C253.328 35.1007 312.225 0 312.225 0V236.205L339.085 272.47H399.478L412.801 285.793L450.871 294.485Z" fill="#1C1B1D"/>
<path d="M60.8681 372.523C65.8079 378.255 68.2857 386.701 68.3015 397.863V439.732H54.6222V397.863C54.6222 384.121 48.9937 377.241 37.7368 377.226C31.533 376.908 25.3952 378.626 20.2577 382.118C15.9038 385.443 13.7268 390.691 13.7268 397.863V439.732H0V335.072H13.7268V379.672C15.4096 374.726 18.7704 370.525 23.2263 367.797C28.3212 365.046 34.0656 363.725 39.8504 363.974C48.8908 363.958 55.8967 366.808 60.8681 372.523Z" fill="#1C1B1D"/>
<path d="M139.382 370.647C144.733 375.603 147.409 383.717 147.409 394.99V439.732H133.706V424.438C131.975 429.267 128.861 433.479 124.752 436.55C120.401 439.746 115.117 441.415 109.719 441.3C99.8161 441.3 92.5965 439.115 88.0842 434.793C85.8865 432.755 84.1451 430.275 82.9744 427.517C81.8037 424.758 81.2304 421.782 81.2921 418.786C81.2921 404.347 90.7916 395.924 109.791 393.517L116.155 392.639C120.761 392.252 125.272 391.105 129.502 389.242C130.586 388.801 131.522 388.059 132.199 387.104C132.877 386.149 133.267 385.021 133.326 383.852C133.326 379.308 127.602 377.044 116.155 377.059C111.32 376.757 106.508 377.933 102.357 380.432C99.1908 382.712 97.6075 386.67 97.6075 392.306H83.7382C83.7382 382.506 86.7227 375.239 92.6915 370.505C99.4459 365.527 107.702 363.012 116.084 363.38C126.28 363.269 134.046 365.692 139.382 370.647ZM133.706 399.882C128.28 402.948 122.282 404.864 116.084 405.51L109.719 406.532C105.605 406.849 101.671 408.35 98.3912 410.854C97.3643 411.702 96.5302 412.759 95.9445 413.955C95.3589 415.15 95.0352 416.458 94.9951 417.789C94.9184 419.158 95.1818 420.526 95.7619 421.769C96.3421 423.012 97.2209 424.092 98.32 424.913C100.529 426.599 104.328 427.431 109.719 427.431C117.541 427.431 123.486 425.649 127.555 422.087C131.639 418.525 133.706 412.089 133.706 402.756V399.882Z" fill="#1C1B1D"/>
<path d="M165.292 363.95H179.731V439.732C179.731 450.514 176.612 458.985 170.374 465.144C164.136 471.302 155.467 474.382 144.369 474.382V460.726C149.886 461.091 155.343 459.399 159.687 455.977C163.32 452.747 165.22 447.332 165.292 439.732V363.95ZM183.792 335.072L172.511 353.406L161.492 335.072H183.792Z" fill="#1C1B1D"/>
<path d="M213.525 423.631C217.183 426.386 222.621 427.739 229.841 427.739C234.689 428.027 239.545 427.291 244.09 425.578C245.442 425.04 246.597 424.101 247.4 422.886C248.202 421.672 248.614 420.241 248.578 418.786C248.65 417.501 248.364 416.222 247.752 415.09C247.14 413.958 246.225 413.018 245.111 412.374C241.297 410.479 237.211 409.189 232.999 408.55L223.903 406.674C214.404 404.933 207.374 402.281 202.815 398.718C200.604 397.009 198.834 394.796 197.652 392.263C196.471 389.731 195.912 386.953 196.022 384.16C195.892 381.003 196.581 377.866 198.02 375.053C199.46 372.24 201.602 369.847 204.239 368.106C209.686 364.354 217.309 362.478 227.11 362.478C237.417 362.478 245.262 365.051 250.645 370.196C253.362 372.864 255.487 376.074 256.882 379.618C258.277 383.161 258.911 386.958 258.743 390.763H245.016C245.15 388.719 244.847 386.671 244.126 384.754C243.405 382.838 242.284 381.097 240.836 379.648C238.034 377.06 233.474 375.753 227.11 375.753C222.669 375.515 218.226 376.178 214.048 377.701C212.758 378.199 211.656 379.086 210.894 380.239C210.132 381.393 209.748 382.755 209.797 384.137C209.757 385.468 210.046 386.789 210.638 387.982C211.23 389.175 212.108 390.203 213.193 390.976C216.447 393.041 220.124 394.347 223.951 394.8L232.762 396.249C243.227 397.974 250.803 400.5 255.489 403.824C257.839 405.512 259.725 407.767 260.97 410.378C262.216 412.99 262.781 415.874 262.614 418.762C262.796 422.11 262.066 425.444 260.501 428.41C258.937 431.375 256.598 433.86 253.732 435.6C247.826 439.305 239.91 441.157 229.983 441.157C218.441 441.157 209.638 438.585 203.575 433.439C200.536 430.799 198.137 427.503 196.557 423.801C194.977 420.098 194.259 416.086 194.455 412.065H208.039C207.937 414.295 208.384 416.515 209.34 418.532C210.297 420.549 211.734 422.3 213.525 423.631Z" fill="#1C1B1D"/>
<path d="M296.385 375.492V410.854C296.219 414.211 296.563 417.574 297.406 420.828C297.698 421.737 298.215 422.557 298.908 423.213C299.601 423.869 300.449 424.339 301.372 424.581C304.72 425.284 308.142 425.571 311.56 425.436V439.685C305.903 439.909 300.257 439.03 294.936 437.096C290.889 435.396 287.615 432.257 285.745 428.286C283.436 422.775 282.366 416.824 282.61 410.854V375.492H269.62V363.95H282.61V337.945L296.313 335.072V363.95H311.489V375.492H296.385Z" fill="#1C1B1D"/>
<path d="M355.424 427.478C360.789 427.782 366.134 426.616 370.885 424.106C372.703 422.981 374.272 421.497 375.497 419.746C376.722 417.994 377.577 416.011 378.009 413.917H391.855C391.164 419.039 389.15 423.893 386.013 428C382.698 432.221 378.379 435.544 373.45 437.666C367.776 440.108 361.648 441.314 355.472 441.205C348.285 441.405 341.173 439.701 334.858 436.265C329.205 433.065 324.651 428.23 321.796 422.396C318.86 415.924 317.342 408.9 317.342 401.794C317.342 394.687 318.86 387.663 321.796 381.192C324.674 375.391 329.223 370.585 334.858 367.394C341.168 363.993 348.259 362.306 355.424 362.501C367.085 362.501 376.228 366.23 382.925 373.687C389.623 381.144 392.971 392.425 392.971 407.529H331.224C332.918 420.828 340.985 427.478 355.424 427.478ZM331.319 396.438H378.959C378.199 388.934 375.777 383.662 371.835 380.645C367.042 377.382 361.31 375.78 355.519 376.086C340.922 376.07 332.855 382.846 331.319 396.415V396.438Z" fill="#1C1B1D"/>
<path d="M446.24 364.449C447.875 364.781 449.442 365.392 450.871 366.254V380.503C449.296 379.511 447.584 378.759 445.788 378.271C442.241 377.419 438.546 377.385 434.983 378.171C431.42 378.957 428.082 380.542 425.222 382.807C421.517 386.274 419.665 391.523 419.665 398.552V439.685H405.962V363.95H419.665V377.606C421.437 373.57 424.288 370.102 427.906 367.584C431.536 365.167 435.824 363.931 440.184 364.045C442.211 363.982 444.239 364.117 446.24 364.449Z" fill="#1C1B1D"/>
</svg>
